<?xml version="1.0" encoding="UTF-8" standalone="no"?><!DOCTYPE svg PUBLIC "-//W3C//DTD SVG 1.1//EN" "http://www.w3.org/Graphics/SVG/1.1/DTD/svg11.dtd"><svg width="18" height="20" viewBox="0 0 18 20" version="1.1" xmlns="http://www.w3.org/2000/svg" xmlns:xlink="http://www.w3.org/1999/xlink" xml:space="preserve" xmlns:serif="http://www.serif.com/" style="fill-rule:evenodd;clip-rule:evenodd;stroke-linejoin:round;stroke-miterlimit:2;"><path d="M12.175,6.221c-0.8,-0.8 -1.918,-1.301 -3.152,-1.301c-1.226,0 -2.335,0.492 -3.136,1.276l-0.025,0.025c-0.809,0.818 -1.318,1.935 -1.318,3.17c0,0.65 0.151,1.25 0.392,1.818c0.251,0.558 0.618,1.05 1.068,1.476l0.05,0.05c0.275,0.267 0.434,0.417 0.567,0.55c0.909,0.868 1.485,1.426 1.726,2.494l1.343,-0c0.242,-1.068 0.826,-1.626 1.726,-2.494c0.134,-0.133 0.292,-0.283 0.568,-0.55l0.025,-0.034c0.458,-0.408 0.834,-0.925 1.092,-1.492c0.242,-0.559 0.375,-1.168 0.375,-1.818c0.009,-1.235 -0.483,-2.352 -1.301,-3.17Z" style="fill:#ffd200;"/><path d="M7.497,17.572l3.052,-0c0.217,-0 0.375,0.167 0.375,0.375l0,1.526c0,0.217 -0.158,0.384 -0.375,0.384l-3.052,-0c-0.217,-0 -0.392,-0.167 -0.392,-0.384l-0,-1.526c-0,-0.208 0.175,-0.375 0.392,-0.375Zm1.526,-13.928c1.576,0 3.011,0.651 4.045,1.685l-0,0.008l-0,-0.008c1.051,1.051 1.684,2.477 1.684,4.07c0,0.817 -0.175,1.601 -0.492,2.318c-0.333,0.734 -0.8,1.385 -1.376,1.91c-0.141,0.134 -0.375,0.359 -0.592,0.567c-0.842,0.818 -1.334,1.285 -1.443,2.294c-0.033,0.325 -0.308,0.567 -0.625,0.567l-2.41,-0c-0.326,-0 -0.609,-0.275 -0.634,-0.601c-0.117,-0.984 -0.609,-1.459 -1.435,-2.26c-0.225,-0.208 -0.458,-0.433 -0.592,-0.567c-0.583,-0.534 -1.051,-1.184 -1.376,-1.91c-0.317,-0.717 -0.492,-1.501 -0.492,-2.318c0,-1.593 0.642,-3.019 1.676,-4.07l0.042,-0.033c1.043,-1.018 2.452,-1.652 4.02,-1.652Zm3.152,2.577c-0.8,-0.8 -1.918,-1.301 -3.152,-1.301c-1.226,0 -2.335,0.492 -3.136,1.276l-0.025,0.025c-0.809,0.818 -1.318,1.935 -1.318,3.17c0,0.65 0.151,1.25 0.392,1.818c0.251,0.558 0.618,1.05 1.068,1.476l0.05,0.05c0.275,0.267 0.434,0.417 0.567,0.55c0.909,0.868 1.485,1.426 1.726,2.494l1.343,-0c0.242,-1.068 0.826,-1.626 1.726,-2.494c0.134,-0.133 0.292,-0.283 0.568,-0.55l0.025,-0.034c0.458,-0.408 0.834,-0.925 1.092,-1.492c0.242,-0.559 0.375,-1.168 0.375,-1.818c0.009,-1.235 -0.483,-2.352 -1.301,-3.17Z" style="fill:#707173;fill-rule:nonzero;"/><path d="M2.726,2.994l1.251,1.259c0.151,0.134 0.376,0.142 0.517,0c0.142,-0.142 0.142,-0.375 -0.008,-0.517l-1.251,-1.251c-0.142,-0.142 -0.375,-0.142 -0.509,0c-0.15,0.142 -0.15,0.375 0,0.509Z" style="fill:#707173;fill-rule:nonzero;"/><path d="M1.083,5.496l1.568,0.834c0.176,0.092 0.392,0.025 0.492,-0.15c0.092,-0.167 0.034,-0.392 -0.158,-0.484l-1.568,-0.834c-0.167,-0.1 -0.392,-0.025 -0.475,0.15c-0.109,0.175 -0.042,0.4 0.141,0.484Z" style="fill:#707173;fill-rule:nonzero;"/><path d="M5.287,1.318l0.817,1.576c0.1,0.175 0.317,0.25 0.5,0.158c0.167,-0.091 0.242,-0.308 0.142,-0.492l-0.817,-1.576c-0.092,-0.175 -0.309,-0.242 -0.484,-0.15c-0.183,0.092 -0.258,0.308 -0.158,0.484Z" style="fill:#707173;fill-rule:nonzero;"/><path d="M15.353,2.677l-1.226,1.259c-0.142,0.134 -0.359,0.142 -0.5,0c-0.134,-0.133 -0.142,-0.375 0.008,-0.517l1.226,-1.251c0.125,-0.142 0.358,-0.133 0.484,0c0.15,0.142 0.15,0.376 0.008,0.509Z" style="fill:#707173;fill-rule:nonzero;"/><path d="M16.954,5.187l-1.534,0.826c-0.176,0.092 -0.384,0.033 -0.476,-0.15c-0.092,-0.167 -0.025,-0.392 0.15,-0.484l1.527,-0.834c0.166,-0.1 0.383,-0.025 0.467,0.15c0.1,0.175 0.041,0.401 -0.134,0.492Z" style="fill:#707173;fill-rule:nonzero;"/><path d="M12.859,1.001l-0.8,1.576c-0.092,0.175 -0.301,0.25 -0.484,0.158c-0.167,-0.091 -0.242,-0.308 -0.142,-0.492l0.801,-1.576c0.083,-0.175 0.3,-0.242 0.467,-0.15c0.183,0.092 0.25,0.309 0.158,0.484Z" style="fill:#707173;fill-rule:nonzero;"/><path d="M8.664,0.484l0.05,1.776c0.009,0.2 0.176,0.359 0.376,0.359c0.192,-0.009 0.358,-0.176 0.35,-0.376l-0.05,-1.776c-0,-0.2 -0.175,-0.359 -0.367,-0.35c-0.209,-0 -0.367,0.166 -0.359,0.367Z" style="fill:#707173;fill-rule:nonzero;"/></svg>
