<?xml version="1.0" encoding="UTF-8" standalone="no"?><!DOCTYPE svg PUBLIC "-//W3C//DTD SVG 1.1//EN" "http://www.w3.org/Graphics/SVG/1.1/DTD/svg11.dtd"><svg width="100%" height="100%" viewBox="0 0 22 20" version="1.1" xmlns="http://www.w3.org/2000/svg" xmlns:xlink="http://www.w3.org/1999/xlink" xml:space="preserve" xmlns:serif="http://www.serif.com/" style="fill-rule:evenodd;clip-rule:evenodd;stroke-linejoin:round;stroke-miterlimit:2;"><g><path d="M19.054,11.17c-0.432,-0 -0.77,0.346 -0.77,0.775l0,6.476l-16.756,0l-0,-16.879l6.432,-0c0.421,-0 0.764,-0.352 0.764,-0.77c0,-0.424 -0.343,-0.77 -0.764,-0.77l-7.196,0c-0.415,0 -0.764,0.346 -0.764,0.77l-0,18.419c-0,0.418 0.349,0.77 0.764,0.77l18.29,-0c0.409,-0 0.758,-0.352 0.758,-0.77l0,-7.246c0,-0.435 -0.343,-0.775 -0.758,-0.775Zm0.299,-11.168l-8.603,0c-0.116,0 -0.238,0.056 -0.326,0.134c-0.183,0.179 -0.183,0.469 -0,0.653l2.424,2.443l-3.709,3.754c-0.182,0.179 -0.182,0.469 0,0.653l3.062,3.084l0.027,0.04c0.183,0.167 0.465,0.167 0.648,-0l3.714,-3.76l2.436,2.449c0.078,0.083 0.194,0.139 0.321,0.139c0.249,0 0.46,-0.212 0.46,-0.474l-0,-8.657c0.005,-0.251 -0.205,-0.458 -0.454,-0.458Z" style="fill:#fff;fill-rule:nonzero;"/></g></svg>